<svg xmlns="http://www.w3.org/2000/svg" id="Layer_2" data-name="Layer 2" viewBox="0 0 68.74 180.3">
  <defs>
    <style>
      .cls-1 {
        fill: #33338e;
      }
    </style>
  </defs>
  <g id="Layer_1-2" data-name="Layer 1">
    <g>
      <path class="cls-1" d="M33.89,0c.11,58.28-1.18,121.59-4.05,180.3h10.03C37.34,122.45,35.34,58.86,35.35,0h-1.46Z"/>
      <path class="cls-1" d="M43.08,16.26c-.64,0-.82,0-1.46,0-.43,47.86-9.98,125.48,23.3,164.04l3.83-10.05C35.81,136.56,43.18,62.36,43.08,16.26Z"/>
      <path class="cls-1" d="M68.71,143.94c-9.52-11.15-23.04-49.42-19.7-107.59h-2.37c-.83,31.8-2.42,91.1,18.24,117.64l3.83-10.05Z"/>
      <path class="cls-1" d="M26.2,26.3c-.1,43.81,4.84,112.2-26.2,143.94l3.83,10.05C35.34,143.79,28.07,72.01,27.66,26.3c-.64,0-.82,0-1.46,0Z"/>
      <path class="cls-1" d="M3.83,153.99c20.66-26.54,19.52-75.91,18.7-107.71h-2.37C23.5,104.45,9.52,132.79,0,143.94l3.83,10.05Z"/>
    </g>
  </g>
</svg>